<?xml version="1.0" standalone="no"?>
<!DOCTYPE svg PUBLIC "-//W3C//DTD SVG 20010904//EN"
 "http://www.w3.org/TR/2001/REC-SVG-20010904/DTD/svg10.dtd">
<svg version="1.0" xmlns="http://www.w3.org/2000/svg"
 width="300.000000pt" height="294.000000pt" viewBox="0 0 300.000000 294.000000"
 preserveAspectRatio="xMidYMid meet">
<metadata>
Created by potrace 1.10, written by Peter Selinger 2001-2011
</metadata>
<g transform="translate(0.000000,294.000000) scale(0.100000,-0.100000)"
fill="#000000" stroke="none">
<path d="M1305 2930 c-154 -14 -332 -68 -496 -151 -394 -197 -694 -586 -784
-1014 -18 -84 -31 -435 -17 -435 4 0 6 -18 4 -40 -10 -99 67 -354 159 -529
140 -267 403 -517 678 -643 105 -48 263 -96 353 -108 127 -16 499 -13 600 5
106 18 234 63 359 125 240 118 442 305 595 550 58 91 81 139 130 269 41 108
58 133 97 146 9 4 17 11 17 16 0 13 -12 11 -38 -7 -26 -18 -26 -22 -7 91 33
210 29 395 -15 596 -89 412 -370 782 -739 972 -208 108 -393 154 -646 161 -88
2 -200 1 -250 -4z m425 -46 c346 -54 665 -229 867 -477 92 -113 129 -170 187
-285 107 -213 149 -397 150 -642 0 -91 -6 -204 -13 -251 l-13 -86 -76 -5 c-74
-5 -78 -4 -110 23 -18 16 -47 36 -65 46 l-32 17 48 7 c64 10 126 48 181 111
25 29 44 53 42 55 -2 2 -29 -3 -60 -11 -64 -17 -153 -77 -167 -112 -9 -26 -29
-33 -29 -10 0 7 6 32 14 54 8 22 18 71 21 109 10 94 -21 190 -74 234 -32 27
-130 74 -138 66 -9 -10 113 -168 152 -197 41 -31 45 -37 45 -78 0 -43 -23
-152 -42 -202 -10 -25 -10 -25 -30 15 -25 49 -86 115 -108 115 -8 0 -28 7 -44
15 -15 8 -32 15 -37 15 -20 0 106 -141 156 -174 51 -34 54 -37 43 -61 -6 -14
-14 -25 -17 -25 -3 0 -24 19 -46 41 -22 22 -62 57 -88 77 -31 23 -64 62 -88
104 -35 60 -59 90 -59 74 0 -19 130 -249 164 -290 22 -27 36 -51 30 -53 -12
-4 -56 -35 -108 -77 -20 -15 -42 -26 -50 -23 -24 9 -65 108 -87 212 -26 124
-65 208 -126 273 -57 60 -111 88 -292 152 -75 27 -158 58 -186 69 l-50 19 1
57 c1 52 5 60 32 82 57 44 119 161 174 324 43 132 55 158 84 182 54 45 58 127
9 185 -13 15 -25 41 -27 57 -2 22 -11 34 -33 44 -16 8 -58 34 -93 57 -34 24
-88 51 -119 60 -54 16 -157 20 -217 8 -21 -3 -48 2 -81 17 -109 48 -253 15
-334 -78 -68 -77 -79 -167 -31 -258 34 -65 35 -72 15 -111 -20 -38 -19 -87 2
-127 9 -18 18 -52 19 -77 4 -63 51 -149 97 -179 43 -28 47 -52 21 -128 -23
-70 -53 -97 -124 -111 -33 -7 -65 -10 -70 -7 -13 8 -160 -61 -160 -74 0 -5
-18 -9 -41 -9 -40 0 -93 -27 -112 -59 -4 -7 -19 -13 -32 -13 -41 0 -76 -19
-86 -47 -5 -16 -27 -40 -48 -55 -50 -36 -106 -119 -138 -204 -22 -59 -27 -96
-35 -244 -11 -209 -20 -296 -31 -293 -5 1 -29 44 -54 95 -116 238 -169 522
-144 773 41 401 225 736 549 996 179 144 391 240 627 284 191 36 324 39 515 9z
m-466 -100 c25 -4 46 -10 46 -13 0 -4 -19 -16 -42 -26 -24 -10 -73 -49 -110
-85 -55 -55 -69 -75 -74 -109 -6 -39 -49 -91 -75 -91 -17 0 -39 59 -39 105 0
95 72 185 168 211 57 15 66 16 126 8z m311 -24 c4 -6 -14 -10 -46 -10 -79 0
-178 -20 -229 -45 -63 -32 -207 -185 -174 -185 3 0 30 22 59 48 172 157 473
212 569 103 28 -31 15 -34 -26 -5 -52 37 -107 40 -214 14 -147 -36 -278 -96
-336 -152 -27 -26 -54 -48 -59 -48 -14 0 -11 46 5 85 19 44 89 114 151 150 69
41 283 73 300 45z m160 -125 c36 -20 43 -21 60 -9 25 18 41 18 49 -2 8 -22 -3
-38 -18 -25 -8 7 -20 6 -37 -3 -22 -11 -31 -11 -60 5 -51 27 -114 24 -186 -10
-59 -28 -64 -29 -127 -18 -36 6 -66 14 -66 18 0 6 201 62 260 72 39 7 81 -3
125 -28z m-5 -61 c33 -13 46 -14 66 -5 42 19 86 -23 99 -93 6 -31 4 -41 -16
-62 -30 -32 -39 -30 -39 9 0 17 -7 41 -15 51 -8 10 -12 22 -10 27 12 19 -42
39 -103 39 -48 0 -80 -7 -135 -31 -67 -29 -77 -30 -142 -23 -38 4 -91 8 -118
8 -37 1 -44 3 -32 12 20 15 19 25 -2 17 -21 -7 -73 -53 -73 -65 0 -12 58 -10
78 3 13 8 40 7 106 -4 93 -16 107 -14 190 22 69 30 158 38 190 17 28 -18 46
-70 46 -134 l0 -43 -35 7 c-22 4 -41 2 -50 -6 -12 -10 -15 -10 -15 3 0 28 -50
75 -97 91 -59 20 -148 21 -203 1 -23 -8 -64 -33 -91 -56 -41 -34 -59 -42 -114
-50 -80 -11 -127 -30 -161 -64 -32 -32 -50 -27 -58 18 -7 39 4 76 28 96 14 12
19 11 36 -4 42 -38 168 -7 238 58 19 18 20 22 8 29 -10 6 -22 2 -35 -11 -38
-38 -97 -61 -156 -61 -30 0 -55 4 -55 9 0 14 64 61 83 61 25 0 47 11 42 21
-12 18 26 67 69 89 43 23 48 24 103 11 115 -25 136 -25 189 2 58 31 125 35
184 11z m-641 -111 c0 -5 -16 -21 -35 -36 -38 -32 -47 -17 -12 20 21 22 49 31
47 16z m534 -77 c18 -7 42 -25 55 -38 22 -24 22 -27 12 -119 -17 -140 -18
-142 -40 -135 -65 20 -67 19 -37 -8 15 -14 37 -26 48 -26 24 0 35 27 44 114 5
48 11 64 18 57 6 -6 19 -11 29 -11 23 0 23 -13 -5 -97 -24 -74 -76 -168 -119
-214 -46 -50 -145 -36 -223 32 -47 42 -58 29 -14 -17 44 -46 99 -74 144 -74
l35 0 -6 -54 c-8 -67 1 -106 23 -106 10 0 41 -10 70 -22 63 -26 68 -46 23 -88
-94 -88 -306 -102 -507 -35 -83 28 -176 83 -193 114 -10 19 -5 23 54 50 56 25
68 36 95 82 17 30 33 74 37 99 4 25 15 71 25 104 24 76 24 105 -2 132 -12 13
-18 28 -14 35 6 8 13 5 25 -12 16 -20 20 -21 35 -9 12 10 15 23 12 47 -5 29 0
37 58 91 84 79 125 109 155 115 54 9 132 6 163 -7z m-343 -84 c0 -17 -71 -67
-113 -79 -49 -14 -111 -65 -105 -85 3 -8 21 -11 50 -9 38 2 49 -1 57 -18 26
-47 -3 -70 -73 -57 -26 5 -37 14 -51 46 -10 22 -15 49 -11 63 11 44 65 86 141
108 38 12 74 25 80 30 11 11 25 12 25 1z m518 -4 c6 -8 6 -22 1 -37 -7 -18
-14 -22 -32 -17 -12 3 -28 6 -34 6 -18 0 -16 20 4 42 19 21 46 23 61 6z m-582
-119 c5 -8 0 -10 -17 -6 -14 4 -37 0 -53 -8 -33 -18 -50 -19 -41 -4 16 26 98
39 111 18z m-46 -157 c0 -5 -11 -14 -24 -21 -18 -10 -29 -10 -45 -2 -34 19
-24 31 24 31 25 0 45 -4 45 -8z m-196 -387 c162 -157 483 -214 672 -117 47 24
94 75 94 102 0 17 2 18 41 2 23 -9 47 -25 55 -37 7 -11 20 -68 28 -125 21
-146 30 -171 87 -246 68 -90 81 -118 87 -192 l5 -63 -39 6 c-65 12 -364 115
-450 156 -217 103 -506 342 -610 505 -53 83 -47 85 30 9z m-69 16 c20 -90 244
-321 439 -453 148 -99 328 -179 494 -218 29 -7 50 -15 47 -18 -3 -3 -40 -5
-83 -4 -227 7 -534 194 -788 479 -89 101 -159 207 -150 229 9 25 34 15 41 -15z
m1697 -35 c19 -20 23 -36 10 -36 -8 0 -33 26 -62 64 -14 18 -14 19 10 5 14 -8
33 -23 42 -33z m-1759 -2 c30 -62 98 -146 212 -260 215 -215 363 -315 573
-385 122 -40 133 -42 280 -47 90 -2 191 0 248 8 53 6 98 9 101 6 12 -12 -84
-45 -162 -56 -109 -16 -228 -1 -448 54 -135 34 -197 55 -277 95 -139 70 -257
148 -370 246 -115 99 -261 220 -312 259 -21 16 -38 32 -38 37 0 5 14 16 32 25
l32 17 99 -102 c55 -56 101 -100 103 -98 2 2 -30 47 -71 99 -41 53 -75 100
-75 105 0 9 34 30 51 32 3 1 13 -15 22 -35z m1185 -98 c98 -61 135 -124 181
-309 17 -64 40 -139 52 -167 12 -28 20 -52 18 -54 -5 -5 -152 -26 -178 -26
-14 0 -17 9 -18 49 -1 70 -18 114 -73 185 -84 109 -114 186 -126 324 l-7 72
57 -25 c31 -14 73 -36 94 -49z m-1382 1 c21 -12 43 -30 203 -168 41 -35 108
-92 148 -126 41 -35 132 -120 201 -191 175 -177 330 -279 507 -335 150 -47
320 -59 450 -32 124 26 280 118 330 194 20 32 39 42 29 17 -3 -8 -11 -51 -17
-97 l-12 -83 -50 -38 c-27 -21 -86 -53 -130 -70 -79 -32 -83 -32 -245 -33
-149 0 -175 3 -272 28 -179 46 -292 101 -467 225 -105 74 -355 312 -444 421
-94 117 -170 201 -175 196 -3 -2 34 -56 81 -118 47 -63 114 -158 147 -213 247
-396 445 -615 656 -726 103 -54 229 -88 329 -88 101 0 142 14 248 83 78 51
207 161 207 177 0 4 -12 6 -26 4 -23 -2 -25 0 -13 11 8 7 42 28 77 45 34 17
62 36 62 42 0 6 3 9 6 5 10 -9 -16 -114 -52 -211 -26 -71 -43 -99 -74 -129
-23 -20 -45 -37 -51 -37 -6 0 -7 -4 -4 -10 3 -5 -6 -12 -20 -16 -14 -3 -25
-10 -25 -14 0 -5 -20 -16 -45 -26 -25 -9 -45 -20 -45 -25 0 -10 -70 -33 -77
-25 -9 9 25 32 77 52 25 10 50 25 57 33 10 13 12 13 13 2 0 -8 8 -3 20 12 11
14 29 29 40 32 39 12 139 194 112 203 -7 2 -12 13 -13 25 0 25 4 32 -47 -85
-60 -140 -231 -238 -416 -238 -141 0 -277 43 -438 140 -262 156 -449 391 -768
963 -81 144 -61 78 30 -101 172 -338 301 -530 475 -707 123 -125 236 -205 373
-266 136 -60 238 -82 352 -77 52 3 101 7 109 9 7 2 15 -1 17 -7 5 -11 -182
-73 -298 -99 -113 -25 -158 -22 -240 17 -141 67 -286 193 -436 378 -107 132
-235 316 -295 421 -135 239 -290 610 -273 654 7 19 81 20 112 2z m-114 -129
l23 -71 -60 -51 c-82 -70 -160 -147 -173 -171 -40 -75 -5 124 38 211 28 57
116 154 139 154 5 0 20 -32 33 -72z m2240 -75 c-6 -3 -9 -10 -6 -15 4 -6 2 -8
-4 -4 -6 3 -13 2 -17 -4 -4 -6 -11 -7 -17 -4 -5 4 2 14 18 25 16 10 31 15 34
12 3 -3 -1 -8 -8 -10z m-2163 -145 c56 -176 61 -274 25 -458 -20 -99 -87 -340
-95 -340 -11 0 -212 214 -242 256 l-27 40 20 135 c11 74 20 152 20 175 0 67
49 129 209 267 25 21 48 34 52 30 4 -4 21 -52 38 -105z m1901 17 c0 -6 9 -16
20 -23 24 -15 26 -28 5 -36 -10 -3 -18 1 -22 12 -4 9 -14 22 -22 29 -13 10
-13 12 -2 13 11 0 9 5 -5 21 -19 22 -19 22 4 8 12 -8 22 -18 22 -24z m183 -36
c38 -33 45 -44 36 -55 -18 -22 -32 -16 -66 32 -55 75 -42 85 30 23z m-63 -3
c0 -7 14 -30 30 -51 l31 -39 -43 -43 c-23 -24 -46 -43 -51 -43 -9 0 0 177 10
193 6 10 23 -2 23 -17z m-51 -59 c-12 -44 -15 -45 -22 -11 -2 15 2 31 10 40
21 21 24 14 12 -29z m-1447 -164 c127 -129 226 -203 370 -278 196 -101 350
-139 563 -140 120 0 148 3 192 21 46 19 50 20 41 4 -15 -24 -96 -77 -144 -94
-108 -38 -304 -25 -447 29 -76 28 -77 28 -77 16 0 -14 152 -70 235 -88 46 -10
103 -13 167 -10 60 2 95 0 91 -6 -3 -5 -33 -22 -67 -38 -51 -24 -73 -29 -141
-29 -281 0 -536 193 -871 659 -108 151 -119 170 -63 111 23 -25 91 -95 151
-157z m1752 165 c-9 -31 -24 -48 -40 -48 -7 0 -55 -34 -106 -75 -51 -41 -99
-75 -105 -75 -7 0 -13 10 -13 23 0 15 23 46 68 89 66 66 135 107 180 108 20 0
22 -4 16 -22z m-348 -33 c29 -114 -164 -256 -388 -286 -101 -14 -210 -1 -338
41 -90 29 -216 88 -207 96 2 2 46 -7 98 -21 52 -14 150 -30 219 -37 231 -21
352 23 560 201 43 37 48 38 56 6z m-1223 -41 c175 -106 444 -233 552 -260 148
-38 308 -37 411 3 8 3 14 1 14 -5 0 -13 -93 -50 -159 -62 -140 -26 -344 0
-488 62 -98 42 -255 146 -353 233 -116 103 -111 110 23 29z m1263 -37 c-7 -78
-35 -217 -48 -237 -23 -37 6 191 37 288 11 32 16 6 11 -51z m-1740 -302 c77
-197 204 -454 204 -411 0 3 -29 70 -64 148 -90 202 -129 298 -123 304 3 3 27
-30 53 -73 27 -43 89 -127 137 -188 162 -203 309 -335 453 -410 l69 -35 -90 5
c-224 14 -368 44 -540 112 -82 32 -100 43 -98 59 8 73 -42 336 -97 508 -29 91
-61 249 -59 296 1 33 93 -153 155 -315z m2034 329 c0 -3 -15 -18 -32 -35 -32
-29 -32 -29 -8 -29 24 0 24 0 5 -19 -11 -10 -49 -31 -84 -45 -103 -41 -104
-16 -1 54 30 21 64 47 74 59 17 19 46 29 46 15z m-271 -97 c-2 -18 0 -37 4
-44 8 -12 -18 -268 -33 -323 -9 -33 -114 -170 -131 -170 -4 0 6 30 21 68 16
37 40 114 55 171 14 57 32 116 39 130 14 27 29 103 34 179 1 12 5 22 8 22 3 0
4 -15 3 -33z m221 -38 c0 -24 -22 -49 -43 -49 -12 0 -29 -5 -37 -10 -12 -8
-11 -10 8 -10 12 0 22 -4 22 -9 0 -19 -64 -29 -74 -12 -12 19 8 43 58 71 56
33 66 35 66 19z m-150 -129 l12 -30 25 20 c51 40 60 15 12 -30 -17 -15 -39
-45 -49 -67 -10 -21 -25 -47 -34 -58 -14 -19 -15 -12 -16 91 0 61 3 114 7 117
9 10 29 -10 43 -43z m-1925 -200 c41 -155 80 -349 71 -358 -5 -4 -159 91 -207
129 l-36 28 33 99 c18 54 40 141 50 193 22 124 24 130 35 100 5 -13 30 -99 54
-191z"/>
<path d="M2394 2175 c15 -60 48 -134 77 -173 31 -42 58 -57 44 -24 -4 9 -8 27
-8 38 -1 12 -6 20 -12 18 -6 -3 -17 6 -23 20 -9 21 -9 24 3 19 8 -3 15 -9 15
-15 0 -5 4 -7 10 -3 5 3 14 -13 20 -35 7 -25 15 -38 22 -34 8 5 9 -2 5 -24 -4
-20 -2 -32 6 -35 9 -3 9 -8 1 -16 -13 -14 -47 -3 -37 12 4 6 0 8 -10 4 -10 -4
-16 -2 -14 6 3 19 -105 68 -154 70 -65 2 -134 -36 -167 -93 -22 -37 -27 -57
-27 -115 0 -129 68 -203 196 -213 47 -3 69 -1 74 8 6 10 0 11 -28 6 -46 -9
-113 9 -155 41 -99 75 -95 246 8 318 55 38 107 43 147 13 169 -123 241 -183
232 -192 -3 -4 -27 2 -53 13 -52 23 -157 40 -141 23 20 -20 126 -72 170 -83
52 -13 58 -21 76 -104 11 -54 13 -57 19 -30 3 17 2 47 -2 68 -10 47 -60 148
-83 167 -25 21 -50 73 -36 78 18 6 13 70 -10 115 -18 36 -150 177 -166 177 -3
0 -2 -11 1 -25z"/>
<path d="M2612 2078 c4 -40 3 -103 -2 -140 -7 -49 -7 -75 2 -93 16 -36 41 -27
56 20 15 44 4 137 -23 198 -7 18 -16 44 -20 60 -11 55 -21 25 -13 -45z"/>
<path d="M2712 1825 c-34 -69 -41 -115 -18 -115 27 0 64 64 71 123 10 79 -11
76 -53 -8z"/>
<path d="M2819 1760 c-46 -30 -78 -76 -99 -145 -7 -22 -16 -44 -21 -50 -11
-12 -12 -45 -1 -45 5 0 38 30 74 68 49 50 69 81 83 122 10 30 20 61 23 68 7
19 -11 14 -59 -18z m1 -66 c0 -12 -26 -30 -38 -26 -10 3 -10 7 -1 18 11 14 39
20 39 8z"/>
<path d="M2810 1568 c-66 -63 -112 -130 -124 -180 -4 -17 -2 -28 4 -28 16 0
82 44 107 71 22 25 86 175 81 190 -2 5 -33 -19 -68 -53z m-27 -105 c-8 -13
-21 -23 -28 -23 -7 0 -16 -6 -18 -12 -4 -9 -6 -10 -6 -1 -1 6 6 19 15 27 8 9
13 16 10 16 -3 0 2 8 12 18 23 24 35 5 15 -25z"/>
<path d="M2443 1596 c7 -8 26 -48 41 -89 20 -56 41 -89 77 -128 27 -29 52 -49
56 -46 16 16 4 99 -21 141 -30 52 -123 136 -149 136 -16 0 -16 -2 -4 -14z
m107 -112 c0 -8 5 -12 10 -9 6 4 9 3 8 -2 -1 -4 4 -19 11 -31 21 -39 2 -40
-30 -2 -32 39 -37 60 -14 60 8 0 15 -7 15 -16z"/>
<path d="M1450 2323 c0 -16 65 -44 112 -50 40 -5 48 -3 48 11 0 9 -1 16 -3 16
-9 0 -124 22 -139 26 -10 3 -18 2 -18 -3z"/>
<path d="M1538 2038 c7 -9 31 -18 53 -21 47 -6 59 -15 39 -27 -10 -6 -23 -4
-37 6 -20 12 -23 12 -23 0 0 -15 21 -26 49 -26 14 0 61 41 61 54 0 2 -19 6
-42 10 -24 4 -59 9 -78 13 -31 5 -33 4 -22 -9z"/>
</g>
</svg>
